<svg width="110" height="60" viewBox="0 0 110 60" fill="none" xmlns="http://www.w3.org/2000/svg">
<rect width="10" height="10" rx="5" fill="#41414A"/>
<rect y="25" width="10" height="10" rx="5" fill="#41414A"/>
<rect y="50" width="10" height="10" rx="5" fill="#41414A"/>
<rect x="25" width="10" height="10" rx="5" fill="#41414A"/>
<rect x="50" width="10" height="10" rx="5" fill="#41414A"/>
<rect x="75" width="10" height="10" rx="5" fill="#41414A"/>
<rect x="100" width="10" height="10" rx="5" fill="#41414A"/>
<rect x="25" y="25" width="10" height="10" rx="5" fill="#41414A"/>
<rect x="25" y="50" width="10" height="10" rx="5" fill="#41414A"/>
<rect x="50" y="25" width="10" height="10" rx="5" fill="#41414A"/>
<rect x="75" y="25" width="10" height="10" rx="5" fill="#41414A"/>
<rect x="100" y="25" width="10" height="10" rx="5" fill="#41414A"/>
<rect x="50" y="50" width="10" height="10" rx="5" fill="#41414A"/>
<rect x="75" y="50" width="10" height="10" rx="5" fill="#41414A"/>
<rect x="100" y="50" width="10" height="10" rx="5" fill="#41414A"/>
</svg>
